<svg width="20" height="20" viewBox="0 0 20 20" fill="none" xmlns="http://www.w3.org/2000/svg">
<path d="M12.9167 17.5C14.0797 17.5 14.6611 17.5 15.1343 17.3565C16.1996 17.0333 17.0333 16.1996 17.3565 15.1343C17.5 14.6611 17.5 14.0797 17.5 12.9167M17.5 7.08333C17.5 5.92037 17.5 5.33888 17.3565 4.86572C17.0333 3.80038 16.1996 2.9667 15.1343 2.64353C14.6611 2.5 14.0797 2.5 12.9167 2.5M7.08333 17.5C5.92037 17.5 5.33888 17.5 4.86572 17.3565C3.80038 17.0333 2.9667 16.1996 2.64353 15.1343C2.5 14.6611 2.5 14.0797 2.5 12.9167M2.5 7.08333C2.5 5.92037 2.5 5.33888 2.64353 4.86572C2.9667 3.80038 3.80038 2.9667 4.86572 2.64353C5.33888 2.5 5.92037 2.5 7.08333 2.5" stroke="#101828" stroke-width="1.5" stroke-linecap="round" stroke-linejoin="round"/>
</svg>
