<svg width="32" height="32" viewBox="0 0 32 32" fill="none" xmlns="http://www.w3.org/2000/svg">
<path fill-rule="evenodd" clip-rule="evenodd" d="M1.3614 13.1305C2.56414 15.0523 3.89729 16.9002 4.94063 18.9403C5.99845 20.9508 8.49087 25.504 9.18643 26.1249C9.88198 26.7901 10.5341 26.8197 11.1137 26.0362C11.7078 25.2527 12.157 24.3953 12.6207 23.5231C13.2149 22.4439 13.722 21.2908 14.548 20.3595C14.8813 20.0195 15.2436 19.6647 15.6638 19.4133C16.3159 19.029 16.968 19.1029 17.6056 19.5907C18.3881 20.1968 18.8953 21.0395 19.1706 21.9708C21.3877 29.3328 21.4746 31.846 21.4311 31.8608C20.9095 31.8755 19.359 26.0805 18.9532 24.7796C18.8663 24.4544 17.707 20.5812 16.6927 20.596C15.403 20.6403 11.7078 31.1364 11.36 31.5947C10.9543 32.1121 10.4471 32.1416 10.0269 31.639C9.6936 31.2546 1.33242 13.1157 1.3614 13.1157V13.1305Z" fill="#005677"/>
<path fill-rule="evenodd" clip-rule="evenodd" d="M26.0392 25.2675C26.1261 24.3509 26.1551 23.4048 26.3435 22.503C26.7927 20.0342 27.2999 17.5655 27.8071 15.0967C28.3577 12.5688 28.8214 10.0113 28.778 7.40944C28.7635 6.30071 28.6041 5.22154 27.894 4.33455C27.126 3.38843 26.0392 3.07798 24.9089 3.13712C23.3439 3.22581 21.7934 3.40321 20.2574 3.68409C18.5475 3.96497 16.8375 4.23107 15.0697 3.95019C13.6061 3.72844 12.273 3.19625 11.0702 2.35361C11.0123 2.30926 10.9688 2.26491 10.8963 2.22056C10.8818 2.20578 10.8818 2.17621 10.8818 2.16143C11.6064 2.35361 12.3019 2.59014 13.041 2.75275C14.7509 3.09277 16.4463 2.81189 18.1417 2.44231C20.0835 2.02838 22.0108 1.52575 23.9815 1.17096C25.1697 0.949211 26.416 0.845729 27.6187 0.801379C29.8793 0.75703 31.4298 2.07273 31.85 4.3789C32.1253 5.82765 31.9804 7.26161 31.7486 8.71036C31.3428 11.1348 30.4154 13.3671 29.5894 15.6584C28.5026 18.7333 27.4303 21.8082 26.358 24.8979C26.2855 25.1196 26.1986 25.3562 26.0972 25.5779C26.0537 25.6666 26.0247 25.6666 26.0247 25.6075C26.0247 25.504 26.0392 25.3857 26.0537 25.2823L26.0392 25.2675Z" fill="#407F9F"/>
<path fill-rule="evenodd" clip-rule="evenodd" d="M4.76657 15.7325C3.9261 14.7864 3.38995 13.2489 2.88277 12.0958C1.99883 10.1001 1.21633 7.54263 1.59309 5.29559C1.96985 3.21117 4.59268 1.46676 6.51995 2.41288C8.21538 3.25552 10.2586 5.25125 12.1279 5.9017C14.0697 6.56694 16.591 5.9904 16.591 5.9904C16.591 5.9904 12.5771 5.44343 8.75154 1.85112C5.70847 -1.03159 2.57846 -0.322001 0.839568 2.42766C-0.508075 4.57122 -0.029879 7.46872 0.854059 9.70097C1.738 11.8593 3.21606 13.9881 4.76657 15.7177V15.7325Z" fill="#81BD41"/>
</svg>
