<svg width="20" height="20" viewBox="0 0 20 20" fill="none" xmlns="http://www.w3.org/2000/svg">
<g clip-path="url(#clip0_6027_11602)">
<path d="M13.5903 3.65336C13.0978 3.65336 12.8515 3.65336 12.6272 3.57012C12.596 3.55856 12.5653 3.54584 12.5351 3.53198C12.3176 3.43221 12.1435 3.25807 11.7952 2.90981C10.9936 2.10822 10.5928 1.70743 10.0997 1.67047C10.0334 1.66551 9.96675 1.66551 9.9005 1.67047C9.40733 1.70743 9.0065 2.10822 8.20496 2.9098C7.85669 3.25807 7.68256 3.43221 7.46506 3.53198C7.43485 3.54584 7.40413 3.55856 7.37297 3.57012C7.14862 3.65336 6.90236 3.65336 6.40984 3.65336H6.31899C5.0624 3.65336 4.43411 3.65336 4.04374 4.04374C3.65336 4.43411 3.65336 5.0624 3.65336 6.31899V6.40984C3.65336 6.90236 3.65336 7.14862 3.57012 7.37297C3.55856 7.40413 3.54584 7.43485 3.53198 7.46506C3.43221 7.68256 3.25807 7.85669 2.9098 8.20496C2.10822 9.0065 1.70743 9.40733 1.67047 9.9005C1.66551 9.96675 1.66551 10.0334 1.67047 10.0997C1.70743 10.5928 2.10822 10.9936 2.9098 11.7952C3.25807 12.1435 3.43221 12.3176 3.53198 12.5351C3.54584 12.5653 3.55856 12.596 3.57012 12.6272C3.65336 12.8515 3.65336 13.0978 3.65336 13.5903V13.6812C3.65336 14.9377 3.65336 15.5661 4.04374 15.9564C4.43411 16.3468 5.0624 16.3468 6.31899 16.3468H6.40984C6.90236 16.3468 7.14862 16.3468 7.37297 16.4301C7.40413 16.4416 7.43485 16.4543 7.46506 16.4682C7.68256 16.568 7.85669 16.7421 8.20496 17.0903C9.0065 17.8919 9.40733 18.2927 9.9005 18.3297C9.96675 18.3347 10.0333 18.3347 10.0997 18.3297C10.5928 18.2927 10.9936 17.8919 11.7952 17.0903C12.1435 16.7421 12.3176 16.568 12.5351 16.4682C12.5653 16.4543 12.596 16.4416 12.6272 16.4301C12.8515 16.3468 13.0978 16.3468 13.5903 16.3468H13.6812C14.9377 16.3468 15.5661 16.3468 15.9564 15.9564C16.3468 15.5661 16.3468 14.9377 16.3468 13.6812V13.5903C16.3468 13.0978 16.3468 12.8515 16.4301 12.6272C16.4416 12.596 16.4543 12.5653 16.4682 12.5351C16.568 12.3176 16.7421 12.1435 17.0903 11.7952C17.8919 10.9936 18.2927 10.5928 18.3297 10.0997C18.3347 10.0333 18.3347 9.96675 18.3297 9.9005C18.2927 9.40733 17.8919 9.0065 17.0903 8.20496C16.7421 7.85669 16.568 7.68256 16.4682 7.46506C16.4543 7.43485 16.4416 7.40413 16.4301 7.37297C16.3468 7.14862 16.3468 6.90236 16.3468 6.40984V6.31899C16.3468 5.0624 16.3468 4.43411 15.9564 4.04374C15.5661 3.65336 14.9377 3.65336 13.6812 3.65336H13.5903Z" stroke="#101828" stroke-width="1.5"/>
<path d="M12.9166 9.99992C12.9166 11.6108 11.6108 12.9166 9.99992 12.9166C8.38909 12.9166 7.08325 11.6108 7.08325 9.99992C7.08325 8.38909 8.38909 7.08325 9.99992 7.08325C11.6108 7.08325 12.9166 8.38909 12.9166 9.99992Z" stroke="#141B34" stroke-width="1.5"/>
</g>
<defs>
<clipPath id="clip0_6027_11602">
<rect width="20" height="20" fill="white"/>
</clipPath>
</defs>
</svg>
